PathFileType	4	(X/Y/Z)	Patient4_TMGait_0pt4_02_left_07.trc.trc
DataRate	CameraRate	NumFrames	NumMarkers	Units	OrigDataRate	OrigDataStartFrame	OrigNumFrames
73.684210526316	73.684210526316	4	33	mm	73.684210526316	71	       141
Frame#	Time	Sacral			L.Shoulder			Chest			R.Shoulder			Neck			R.ASIS			L.ASIS			R.Thigh.Superior			R.Thigh.Lateral			R.Thigh.Inferior			R.Patella			L.Thigh.Superior			L.Thigh.Lateral			L.Thigh.Inferior			L.Patella			L.Shank.Superior			L.Shank.Lateral			L.Shank.Inferior			R.Shank.Superior			R.Shank.Lateral			R.Shank.Inferior			R.Heel			R.Midfoot.Superior			R.Midfoot.Lateral			R.Toe			L.Heel			L.Midfoot.Lateral			L.Midfoot.Superior			L.Toe			L.Elbow			L.Wrist			R.Elbow			R.Wrist			
		X1	Y1	Z1	X2	Y2	Z2	X3	Y3	Z3	X4	Y4	Z4	X5	Y5	Z5	X6	Y6	Z6	X7	Y7	Z7	X8	Y8	Z8	X9	Y9	Z9	X10	Y10	Z10	X11	Y11	Z11	X12	Y12	Z12	X13	Y13	Z13	X14	Y14	Z14	X15	Y15	Z15	X16	Y16	Z16	X17	Y17	Z17	X18	Y18	Z18	X19	Y19	Z19	X20	Y20	Z20	X21	Y21	Z21	X22	Y22	Z22	X23	Y23	Z23	X24	Y24	Z24	X25	Y25	Z25	X26	Y26	Z26	X27	Y27	Z27	X28	Y28	Z28	X29	Y29	Z29	X30	Y30	Z30	X31	Y31	Z31	X32	Y32	Z32	X33	Y33	Z33	

71	10.340000000000	876.286457343787	1009.412583494256	417.633765274989	1090.109412296979	1430.939654118979	238.718643590149	1165.901348247225	1368.462781615683	415.449666946001	1058.444939019755	1449.388369893678	572.143304055466	1048.347016499986	1497.830881743851	390.049128440873	1093.519533465823	950.513407200881	559.209618230874	1104.511242813722	963.148646514196	282.695236766432	1153.239733178262	760.381551952529	540.359987836605	1094.781497242102	646.668169766187	614.426382908060	1181.043341750000	597.536886661370	538.117781495136	1207.228464340243	522.078284979829	555.845341882223	1112.376521835386	737.936540759729	311.545342732821	1001.031535577097	637.667966146760	247.889766260499	1067.169099556391	548.269032863929	311.048623305015	1054.870854074913	482.898112709077	319.838336655234	1025.370967842966	415.078717837826	313.321815178306	926.007849820278	305.285243783419	268.288568419177	975.284151521888	192.661353396680	340.243877256235	1197.428810170498	439.187972477914	570.175849626123	1154.074612521485	324.040655276871	637.441251648560	1231.483098604199	242.765896624820	588.916923272794	1154.317271392436	52.138614377452	565.809783499691	1316.219851485628	129.642268453637	602.866246519837	1240.491000814764	51.684898622672	637.178906999677	1441.887966634341	94.917374020897	623.746042797076	844.410110270149	39.888759911524	394.182772411122	914.027724130136	35.119471753429	309.822294027692	998.992207865032	95.980258650684	331.888444561169	1126.063922708165	42.120016470918	298.578739620084	1162.124733396850	1105.087883220327	88.875672318394	1405.941182039128	1009.349939440742	93.153067080500	899.860984848660	1143.881192355150	678.940621332231	877.603078875071	881.628355456349	682.940686463126	
72	10.353571428571	877.379432238957	1008.337297817345	419.356276591398	1090.127277986056	1429.956465782322	240.283550266884	1166.114103406397	1367.892217863861	417.085796132819	1058.432635810079	1448.701081368489	573.708058843913	1048.351612670476	1496.989170545888	391.519734244225	1094.608611303202	949.402213111058	561.044857929097	1105.684777681645	962.613726292138	284.438030220260	1154.375077256122	759.038005506778	541.968371156118	1094.508377577490	644.500447244725	614.213295942798	1181.367314790194	596.058343529085	538.402115512518	1206.726999226002	520.193866715132	555.228539304383	1112.114168236169	736.963381709145	312.691298160338	999.892473658840	637.465497948026	248.943943997386	1065.253660191913	547.503901394527	311.925826418882	1052.545637729771	482.084740368374	320.552530383502	1022.446104056193	414.562871894715	313.929766753702	922.223162063150	305.613274250565	268.730775392583	970.609797156467	192.396928394872	340.328092322713	1196.063151592327	436.532872972945	568.737138217583	1151.066811907163	321.547399123627	634.888957877861	1227.437915895826	239.754803932450	586.203080682889	1148.041605319796	50.736089233231	561.964428204857	1310.381852100937	126.069720173096	599.533373553886	1233.747783652834	49.510900661152	633.781227465050	1435.529285722488	90.095754763624	621.114084974691	838.954984473680	39.967549946474	394.083939334922	908.578035640331	35.108148906139	309.799840278848	993.552717731909	95.923028879976	331.875706326486	1120.594600693464	42.001685648486	298.582872061576	1161.366471760223	1103.053368367668	91.781427870874	1403.434788688642	1002.227223202555	95.061165495498	902.379511403172	1141.984489988995	681.389122599507	883.234192343067	879.593439186657	686.037420805240	
73	10.367142857143	878.643881739564	1007.151270206674	421.365190365112	1089.895136889001	1428.976972185708	242.066821359121	1166.289697983438	1367.363746867449	418.867396130439	1058.428288446718	1447.925371214553	575.522426097944	1048.212089874678	1496.100757790021	393.248069058689	1096.078192892211	948.217243608535	562.924996564182	1106.933778516268	962.077801248000	286.251239314373	1156.203596471129	757.736811476694	543.485532799580	1094.911121328010	642.345871427932	613.854012375237	1182.307251751951	594.635011204032	538.508517154027	1206.660211534438	518.022046317535	554.318030860602	1112.003737229663	735.974856490709	313.781713618381	998.866992542963	637.249482618541	250.078635730694	1063.542392582071	546.718192384913	312.781221069761	1050.470223944816	481.197175771418	321.282774793922	1019.706522648234	413.981932834242	314.576907470511	918.536585949123	305.950816320646	269.242888602100	965.973334222658	192.089429511355	340.429561438109	1194.736216408217	433.404015511700	567.043419129877	1147.481828169233	318.936823326910	632.306728364597	1222.053744101144	236.075523141050	583.305176486693	1139.033838144487	49.319653316617	558.425047118757	1302.296048260954	121.604720161422	595.989762049392	1224.390452377560	47.085180944373	630.579285314897	1426.803497671913	83.711821844315	618.208733358631	833.496705621168	40.039542169038	393.976931067939	903.131371250357	35.097514890506	309.780999814190	988.105746181517	95.869957506648	331.867419626103	1115.122412855819	41.867961795057	298.581349701482	1160.258551790427	1100.944318789712	94.949814036938	1400.060177834221	994.089943325188	97.030079217024	905.526932778039	1139.671658089721	684.257943418980	890.452369671061	877.157796892913	689.618939975433	
74	10.380714285714	880.072264107600	1005.885280572059	423.653785963287	1089.427120577068	1428.018618477694	244.071046072188	1166.449592878618	1366.888943715339	420.792349698585	1058.469939876608	1447.076335058198	577.594471335514	1047.959665210935	1495.189029897915	395.243966235186	1097.932711666113	946.980805748299	564.814895317473	1108.254455047496	961.559902523897	288.114671846100	1158.573072588813	756.384969861367	544.867676211449	1095.824888167582	640.244248238360	613.423327219000	1183.616163694655	593.220742566668	538.434232419870	1206.785599086615	515.633217798322	553.111165653810	1112.063526544158	734.988648426931	314.796761143517	997.961409433918	637.029670069288	251.300420491341	1062.050027055782	545.923252518720	313.625073674747	1048.669089220154	480.236460447942	322.039735084249	1017.168937672788	413.340782101976	315.279000812129	914.957038256317	306.309133753578	269.840916231534	961.379142987120	191.748356182634	340.564552957618	1193.417692772995	429.967965818683	565.200399759718	1143.609788054900	316.283642344003	629.875965841273	1215.828528554898	231.983799408445	580.372935631727	1128.277223010694	47.889153356678	555.410626853480	1292.784337397281	116.684450471353	592.383736730328	1213.451744757576	44.609268106120	627.739356162971	1416.645548498029	76.514425333825	615.094464787706	828.033103188187	40.123254940201	393.864807927423	897.689416162143	35.097653548553	309.768720792570	982.657894361059	95.828895012036	331.865899372524	1109.651622632676	41.713117151070	298.571626362698	1158.826539367110	1098.791313703151	98.374083455326	1395.747320335739	985.016371621600	99.042743577623	909.241391183345	1137.035241674504	687.513499158569	899.128773197743	874.443637873509	693.635985647282	
